<svg xmlns="http://www.w3.org/2000/svg" viewBox="0 0 100 100" preserveAspectRatio="xMidYMid" width="214" height="214" style="shape-rendering: auto; display: block; background: transparent;" xmlns:xlink="http://www.w3.org/1999/xlink"><g><g transform="rotate(0 50 50)">
  <rect fill="#45a2f8" height="5" width="2" ry="0.75" rx="0.75" y="39.5" x="49">
    <animate repeatCount="indefinite" begin="-0.31584062196307094s" dur="0.3401360544217687s" keyTimes="0;1" values="1;0" attributeName="opacity"></animate>
  </rect>
</g><g transform="rotate(25.714285714285715 50 50)">
  <rect fill="#8c1c84" height="5" width="2" ry="0.75" rx="0.75" y="39.5" x="49">
    <animate repeatCount="indefinite" begin="-0.2915451895043732s" dur="0.3401360544217687s" keyTimes="0;1" values="1;0" attributeName="opacity"></animate>
  </rect>
</g><g transform="rotate(51.42857142857143 50 50)">
  <rect fill="#ffffff" height="5" width="2" ry="0.75" rx="0.75" y="39.5" x="49">
    <animate repeatCount="indefinite" begin="-0.26724975704567544s" dur="0.3401360544217687s" keyTimes="0;1" values="1;0" attributeName="opacity"></animate>
  </rect>
</g><g transform="rotate(77.14285714285714 50 50)">
  <rect fill="#45a2f8" height="5" width="2" ry="0.75" rx="0.75" y="39.5" x="49">
    <animate repeatCount="indefinite" begin="-0.24295432458697766s" dur="0.3401360544217687s" keyTimes="0;1" values="1;0" attributeName="opacity"></animate>
  </rect>
</g><g transform="rotate(102.85714285714286 50 50)">
  <rect fill="#8c1c84" height="5" width="2" ry="0.75" rx="0.75" y="39.5" x="49">
    <animate repeatCount="indefinite" begin="-0.2186588921282799s" dur="0.3401360544217687s" keyTimes="0;1" values="1;0" attributeName="opacity"></animate>
  </rect>
</g><g transform="rotate(128.57142857142858 50 50)">
  <rect fill="#ffffff" height="5" width="2" ry="0.75" rx="0.75" y="39.5" x="49">
    <animate repeatCount="indefinite" begin="-0.19436345966958213s" dur="0.3401360544217687s" keyTimes="0;1" values="1;0" attributeName="opacity"></animate>
  </rect>
</g><g transform="rotate(154.28571428571428 50 50)">
  <rect fill="#45a2f8" height="5" width="2" ry="0.75" rx="0.75" y="39.5" x="49">
    <animate repeatCount="indefinite" begin="-0.17006802721088438s" dur="0.3401360544217687s" keyTimes="0;1" values="1;0" attributeName="opacity"></animate>
  </rect>
</g><g transform="rotate(180 50 50)">
  <rect fill="#8c1c84" height="5" width="2" ry="0.75" rx="0.75" y="39.5" x="49">
    <animate repeatCount="indefinite" begin="-0.1457725947521866s" dur="0.3401360544217687s" keyTimes="0;1" values="1;0" attributeName="opacity"></animate>
  </rect>
</g><g transform="rotate(205.71428571428572 50 50)">
  <rect fill="#ffffff" height="5" width="2" ry="0.75" rx="0.75" y="39.5" x="49">
    <animate repeatCount="indefinite" begin="-0.12147716229348883s" dur="0.3401360544217687s" keyTimes="0;1" values="1;0" attributeName="opacity"></animate>
  </rect>
</g><g transform="rotate(231.42857142857142 50 50)">
  <rect fill="#45a2f8" height="5" width="2" ry="0.75" rx="0.75" y="39.5" x="49">
    <animate repeatCount="indefinite" begin="-0.09718172983479106s" dur="0.3401360544217687s" keyTimes="0;1" values="1;0" attributeName="opacity"></animate>
  </rect>
</g><g transform="rotate(257.14285714285717 50 50)">
  <rect fill="#8c1c84" height="5" width="2" ry="0.75" rx="0.75" y="39.5" x="49">
    <animate repeatCount="indefinite" begin="-0.0728862973760933s" dur="0.3401360544217687s" keyTimes="0;1" values="1;0" attributeName="opacity"></animate>
  </rect>
</g><g transform="rotate(282.85714285714283 50 50)">
  <rect fill="#ffffff" height="5" width="2" ry="0.75" rx="0.75" y="39.5" x="49">
    <animate repeatCount="indefinite" begin="-0.04859086491739553s" dur="0.3401360544217687s" keyTimes="0;1" values="1;0" attributeName="opacity"></animate>
  </rect>
</g><g transform="rotate(308.57142857142856 50 50)">
  <rect fill="#45a2f8" height="5" width="2" ry="0.75" rx="0.75" y="39.5" x="49">
    <animate repeatCount="indefinite" begin="-0.024295432458697766s" dur="0.3401360544217687s" keyTimes="0;1" values="1;0" attributeName="opacity"></animate>
  </rect>
</g><g transform="rotate(334.2857142857143 50 50)">
  <rect fill="#8c1c84" height="5" width="2" ry="0.75" rx="0.75" y="39.5" x="49">
    <animate repeatCount="indefinite" begin="0s" dur="0.3401360544217687s" keyTimes="0;1" values="1;0" attributeName="opacity"></animate>
  </rect>
</g><g></g></g><!-- [ldio] generated by https://loading.io --></svg>